<svg width="124" height="90" viewBox="0 0 124 90" fill="none" xmlns="http://www.w3.org/2000/svg">
<g clip-path="url(#clip0_393_2184)">
<path d="M62.505 50C62.4214 49.8621 62.406 49.7715 62.5523 49.6266C64.4596 47.7389 66.6622 46.2704 68.9847 44.9483C72.0901 43.1818 75.293 41.5824 78.2786 39.611C79.4572 38.8322 80.5077 37.9086 81.5052 36.8915C82.766 35.6056 83.7482 34.179 84.3334 32.4946C84.6622 31.5473 84.8711 30.5665 84.9102 29.5397C85.1386 23.4974 84.9408 17.4552 85.0077 11.413C85.0132 10.9574 84.8516 10.6119 84.5298 10.3124C81.7797 7.74889 79.0295 5.18265 76.2808 2.61779C75.9227 2.28343 75.4964 2.12879 75.0102 2.12879C72.0789 2.13157 69.1463 2.09953 66.215 2.14968C63.4509 2.19705 60.6855 2.21377 57.9228 2.17197C55.025 2.12739 52.1271 2.1664 49.2307 2.12739C48.5787 2.11903 48.0562 2.33358 47.5742 2.78776C45.001 5.21748 42.4152 7.63604 39.8128 10.0365C39.2611 10.545 38.9964 11.0856 39.0005 11.8602C39.0298 17.3577 39.0173 22.8538 39.0173 28.3513C39.0173 30.9384 39.7222 33.3041 41.2464 35.4092C42.6312 37.3206 44.4145 38.7988 46.4011 40.0332C49.3394 41.8582 52.4169 43.4409 55.422 45.1503C57.5982 46.3875 59.6559 47.7862 61.4252 49.5765C61.5478 49.7005 61.7596 49.8077 61.5033 50.0014H58.7044C58.1095 49.341 57.3544 48.8827 56.6327 48.3839C53.5914 46.2774 50.1711 44.8327 47.042 42.8711C45.7895 42.0867 44.5189 41.3344 43.3389 40.4469C41.2965 38.9144 39.5244 37.1298 38.3555 34.8199C37.6631 33.4504 37.0487 32.0098 37.0362 30.4815C36.9776 23.6646 37.0125 16.8506 37.0055 10.0365C37.0055 9.78016 37.0891 9.61855 37.28 9.443C38.8166 8.04007 40.3394 6.6232 41.8635 5.20633C43.5089 3.67661 45.1807 2.17337 46.7745 0.593497C47.2566 0.115634 47.7205 0 48.3446 0C56.1576 0.015325 63.9706 0.00975229 71.785 0.00975229C73.284 0.00975229 74.7831 0.00975229 76.2836 0.00975229C76.48 0.00975229 76.6583 0.00417957 76.8311 0.168575C78.8623 2.08978 80.895 4.00958 82.9444 5.91128C84.2846 7.1554 85.5858 8.4427 86.9985 9.6074V31.1028C86.7505 31.5919 86.6865 32.1394 86.5444 32.6562C85.9188 34.923 84.6538 36.7787 83.0294 38.424C80.686 40.7966 77.8509 42.4698 74.9698 44.079C72.43 45.4986 69.7955 46.7525 67.3895 48.4034C66.6678 48.898 65.9141 49.3563 65.3039 49.9986H62.505V50Z" fill="white"/>
<path d="M73.5111 5.38052C74.0112 5.34569 74.3554 5.64244 74.6855 5.94894C76.2348 7.38671 77.7784 8.83005 79.3221 10.2748C79.9657 10.8766 80.5996 11.491 81.2488 12.0873C81.4982 12.3172 81.6152 12.5735 81.6152 12.919C81.6041 18.234 81.6445 23.549 81.5762 28.8626C81.5498 30.8842 80.7696 32.6925 79.421 34.2362C77.9456 35.9261 76.1303 37.1883 74.2286 38.3238C72.6794 39.2474 71.0842 40.0945 69.4945 40.9471C67.7698 41.8708 66.098 42.8753 64.4568 43.9425C63.6501 44.4677 62.9661 45.1267 62.204 45.6965C61.9128 45.9138 61.7679 45.6784 61.6175 45.5432C60.8387 44.8383 60.0042 44.2058 59.1334 43.6234C57.0966 42.2651 54.9135 41.1589 52.7694 39.9872C50.2867 38.6317 47.8166 37.2552 45.7017 35.3396C43.9198 33.7249 42.7997 31.7605 42.4946 29.3447C42.4333 28.8626 42.4208 28.3876 42.4194 27.9097C42.4124 22.9946 42.418 18.0808 42.4041 13.1656C42.4027 12.6571 42.5657 12.2642 42.9349 11.9313C43.6635 11.2737 44.3893 10.6133 45.1068 9.9446C46.4359 8.70327 47.7776 7.47448 49.0746 6.20111C49.657 5.62851 50.2658 5.37077 51.1031 5.37356C58.2836 5.40421 65.4641 5.39167 72.6445 5.39028C72.8939 5.39028 73.1447 5.38331 73.3941 5.37913C73.4345 5.37913 73.4749 5.37913 73.5139 5.37913L73.5111 5.38052ZM58.0272 14.7218C58.076 14.6786 58.0774 14.6354 58.0286 14.5923C58.03 14.2036 58.0328 13.8135 58.0342 13.4248C58.0871 13.3677 58.0788 13.33 57.998 13.3175C57.789 13.2994 57.6093 13.3955 57.4296 13.4749C55.7215 14.2328 54.2726 15.3404 53.0759 16.7698C52.0059 18.0474 51.2926 19.5004 50.8774 21.1249C50.3912 23.0294 50.4999 24.9046 51.092 26.7353C52.0588 29.7292 54.0525 31.8859 56.8207 33.3306C57.1857 33.5215 57.548 33.8447 58.03 33.7207C58.0788 33.6761 58.0774 33.6315 58.0272 33.5883C58.0286 33.2721 58.0063 32.953 58.0398 32.6396C58.0802 32.2509 57.9283 32.0475 57.5758 31.8789C56.2036 31.2227 55.0611 30.267 54.1263 29.0688C53.041 27.677 52.3988 26.0902 52.2204 24.3459C52.0909 23.0865 52.2845 21.8466 52.7053 20.6359C53.1678 19.3068 53.9132 18.1379 54.8647 17.1488C55.6505 16.3323 56.602 15.658 57.6553 15.1718C57.8475 15.0827 58.0788 15.0186 58.0272 14.7232V14.7218ZM62.8449 30.4105C62.8449 32.6772 62.8435 34.9425 62.8421 37.2092C62.6568 37.3987 62.5955 37.5742 62.8978 37.708C63.398 37.7052 63.8995 37.7024 64.3997 37.6996C64.5083 37.6648 64.5055 37.584 64.4819 37.4948C64.4846 35.4803 64.4916 33.4657 64.4832 31.4498C64.4832 31.1433 64.5501 30.9859 64.8789 30.8842C65.8068 30.5972 66.6329 30.1012 67.4187 29.53C67.7907 29.2597 67.8422 29.0382 67.4368 28.7651C67.2877 28.6634 67.1526 28.5297 67.0397 28.3876C66.8113 28.1048 66.6301 28.063 66.3097 28.3207C65.4529 29.0075 64.4456 29.3781 63.3743 29.615C62.941 29.7111 62.8908 29.5774 62.8922 29.197C62.9034 25.4842 62.8992 21.7699 62.8992 18.0571C62.8992 17.4706 62.9856 17.3953 63.5665 17.5486C64.624 17.8272 65.6424 18.1978 66.4908 18.9237C66.6232 19.0365 66.7374 19.1326 66.9116 18.9585C67.1693 18.7008 67.4521 18.4667 67.7266 18.2257C67.8826 18.0892 67.9007 17.993 67.7196 17.837C66.8907 17.1223 65.9698 16.5525 64.9235 16.2515C64.5195 16.1345 64.4846 15.9534 64.486 15.6288C64.493 14.0475 64.4958 12.4649 64.486 10.8836C64.4832 10.4211 64.6867 9.82339 64.4011 9.53221C64.0946 9.21875 63.4857 9.45698 63.0107 9.42633C62.9716 9.45141 62.9326 9.47788 62.895 9.50296C62.8741 9.81782 62.8351 10.1327 62.8351 10.4489C62.8295 12.3646 62.8323 14.2802 62.8323 16.1958C62.8323 17.3187 62.8323 17.2992 61.7164 17.3257C61.3082 17.3354 61.1884 17.2393 61.1912 16.8144C61.2093 14.3819 61.1939 11.9508 61.1912 9.51828C61.187 9.45837 61.1563 9.42772 61.095 9.4333L59.8175 9.42912C59.6768 9.41797 59.5374 9.40822 59.6782 9.61162C59.6656 10.0728 59.5834 10.5256 59.589 10.9909C59.6085 12.5554 59.5974 14.1214 59.596 15.6859C59.596 15.9158 59.621 16.115 59.3006 16.2223C58.4048 16.519 57.6079 16.9774 56.8375 17.5542C55.6351 18.4556 54.8104 19.5771 54.242 20.9354C53.569 22.5459 53.5314 24.2052 54.0943 25.8158C54.9622 28.2984 56.7232 29.9661 59.1891 30.8702C59.5165 30.99 59.6085 31.1489 59.6057 31.4804C59.5904 33.1787 59.5974 34.877 59.5974 36.5753C59.5974 37.7261 59.5974 37.7094 60.7412 37.7219C61.1187 37.7261 61.2148 37.616 61.2121 37.2454C61.1967 34.7642 61.2051 32.2843 61.2051 29.803C61.2469 29.7863 61.2887 29.7696 61.3305 29.7529C61.3862 29.7585 61.4433 29.7654 61.499 29.771C61.8696 29.8226 62.2402 29.8267 62.6108 29.7696C62.8393 29.7724 62.8309 29.9438 62.8463 30.0984C62.8017 30.2029 62.8031 30.3074 62.8463 30.4133L62.8449 30.4105ZM66.0074 13.8135C66.0074 14.5839 66.0074 14.5867 66.704 14.8737C67.4312 15.1732 68.1083 15.5577 68.7534 16.0063C69.2716 16.3676 69.763 16.3388 70.2274 15.92C70.7038 15.4909 70.701 15.431 70.1842 15.0437C69.1685 14.2816 68.0944 13.6282 66.8893 13.2033C65.8277 12.8285 66.006 12.9553 66.0074 13.8135ZM66.0074 33.2024C66.0074 33.3543 66.0074 33.4211 66.0074 33.488C66.0074 34.1721 66.0645 34.218 66.6956 33.984C67.7879 33.5786 68.8342 33.0742 69.7676 32.3721C70.7693 31.6184 70.6648 31.8496 69.8275 30.9873C69.5461 30.6975 69.3106 30.6501 68.9818 30.9176C68.295 31.4763 67.5315 31.9277 66.6984 32.216C66.1411 32.4083 65.8527 32.6828 66.0074 33.2038V33.2024Z" fill="white"/>
<path d="M73.5112 5.38054C73.4708 5.38054 73.4304 5.38054 73.3914 5.38054C73.4318 5.33735 73.4722 5.33735 73.5112 5.38054Z" fill="white"/>
<path d="M61.4977 29.7695C61.8683 29.6623 62.2389 29.665 62.6108 29.7681C62.2402 29.8253 61.8697 29.8211 61.4977 29.7695Z" fill="white"/>
<path d="M62.8435 37.2092C62.9549 37.3653 62.8922 37.5408 62.8992 37.708C62.5969 37.5729 62.6582 37.3987 62.8435 37.2092Z" fill="white"/>
<path d="M61.2789 29.5842C61.2957 29.64 61.3124 29.6957 61.3291 29.7514C61.2873 29.7681 61.2455 29.7848 61.2037 29.8016C61.1327 29.7486 61.063 29.6957 60.9919 29.6413C61.0881 29.6218 61.1842 29.6023 61.2789 29.5842Z" fill="white"/>
<path d="M59.8162 9.42629C59.7981 9.50848 59.7674 9.58093 59.6769 9.60879C59.5361 9.40539 59.6755 9.41514 59.8162 9.42629Z" fill="white"/>
<path d="M62.8449 30.0955C62.9243 30.1999 62.9243 30.3044 62.8449 30.4103C62.8017 30.3058 62.8003 30.2013 62.8449 30.0955Z" fill="white"/>
<path d="M64.4011 37.6997C64.429 37.6314 64.4569 37.5631 64.4847 37.4949C64.5084 37.584 64.5112 37.6634 64.4011 37.6997Z" fill="white"/>
<path d="M58.0343 13.4234C58.0217 13.3872 58.0106 13.3524 57.998 13.3162C58.0789 13.3287 58.0872 13.3649 58.0343 13.4234Z" fill="white"/>
<path d="M58.0272 14.7219C58.0272 14.6787 58.0272 14.6355 58.0272 14.5923C58.076 14.6355 58.0746 14.6787 58.0272 14.7219Z" fill="white"/>
<path d="M63.0121 9.4248C62.9731 9.44988 62.9341 9.47635 62.8965 9.50143C62.9355 9.47635 62.9745 9.44988 63.0121 9.4248Z" fill="white"/>
<path d="M61.1898 9.51555C61.1577 9.48769 61.1257 9.45843 61.0936 9.43057C61.1549 9.42639 61.1856 9.45565 61.1898 9.51555Z" fill="white"/>
<path d="M58.0315 33.7193C58.0315 33.6747 58.0301 33.6315 58.0287 33.5869C58.0788 33.6301 58.0802 33.6733 58.0315 33.7193Z" fill="white"/>
<path d="M61.279 29.5843C61.1829 29.6038 61.0867 29.6233 60.992 29.6414C58.3059 29.1482 56.4001 27.716 55.5864 25.0439C55.2298 23.8722 55.3399 22.6908 55.7355 21.5233C56.3081 19.832 57.6094 18.8651 59.0555 18.0013C59.649 17.6475 60.2968 17.6266 60.9307 17.4942C61.0951 17.4594 61.279 17.4301 61.2846 17.6948C61.1731 17.8425 61.2149 18.0139 61.2149 18.1769C61.2121 21.7295 61.2121 25.2821 61.2149 28.8347C61.2149 28.9977 61.1745 29.1691 61.2846 29.3168C61.2846 29.4059 61.2818 29.4951 61.2804 29.5843H61.279Z" fill="white"/>
<path d="M61.2831 29.3168C61.1731 29.1691 61.2149 28.9963 61.2135 28.8347C61.2121 25.2821 61.2121 21.7295 61.2135 18.1769C61.2135 18.0153 61.1717 17.8425 61.2831 17.6948C61.2915 18.5252 61.3068 19.3569 61.3082 20.1872C61.311 23.0307 61.3096 25.8756 61.3082 28.7191C61.3082 28.9183 61.2915 29.1175 61.2818 29.3154L61.2831 29.3168Z" fill="white"/>
</g>
<path d="M0.794766 74.96C0.794766 73.5733 1.09477 72.34 1.69477 71.26C2.29477 70.1667 3.1281 69.32 4.19477 68.72C5.27477 68.1067 6.49477 67.8 7.85477 67.8C9.52143 67.8 10.9481 68.24 12.1348 69.12C13.3214 70 14.1148 71.2 14.5148 72.72H10.7548C10.4748 72.1333 10.0748 71.6867 9.55477 71.38C9.0481 71.0733 8.4681 70.92 7.81477 70.92C6.76143 70.92 5.9081 71.2867 5.25477 72.02C4.60143 72.7533 4.27477 73.7333 4.27477 74.96C4.27477 76.1867 4.60143 77.1667 5.25477 77.9C5.9081 78.6333 6.76143 79 7.81477 79C8.4681 79 9.0481 78.8467 9.55477 78.54C10.0748 78.2333 10.4748 77.7867 10.7548 77.2H14.5148C14.1148 78.72 13.3214 79.92 12.1348 80.8C10.9481 81.6667 9.52143 82.1 7.85477 82.1C6.49477 82.1 5.27477 81.8 4.19477 81.2C3.1281 80.5867 2.29477 79.74 1.69477 78.66C1.09477 77.58 0.794766 76.3467 0.794766 74.96ZM27.1291 76.24C27.1291 76.56 27.1091 76.8933 27.0691 77.24H19.3291C19.3825 77.9333 19.6025 78.4667 19.9891 78.84C20.3891 79.2 20.8758 79.38 21.4491 79.38C22.3025 79.38 22.8958 79.02 23.2291 78.3H26.8691C26.6825 79.0333 26.3425 79.6933 25.8491 80.28C25.3691 80.8667 24.7625 81.3267 24.0291 81.66C23.2958 81.9933 22.4758 82.16 21.5691 82.16C20.4758 82.16 19.5025 81.9267 18.6491 81.46C17.7958 80.9933 17.1291 80.3267 16.6491 79.46C16.1691 78.5933 15.9291 77.58 15.9291 76.42C15.9291 75.26 16.1625 74.2467 16.6291 73.38C17.1091 72.5133 17.7758 71.8467 18.6291 71.38C19.4825 70.9133 20.4625 70.68 21.5691 70.68C22.6491 70.68 23.6091 70.9067 24.4491 71.36C25.2891 71.8133 25.9425 72.46 26.4091 73.3C26.8891 74.14 27.1291 75.12 27.1291 76.24ZM23.6291 75.34C23.6291 74.7533 23.4291 74.2867 23.0291 73.94C22.6291 73.5933 22.1291 73.42 21.5291 73.42C20.9558 73.42 20.4691 73.5867 20.0691 73.92C19.6825 74.2533 19.4425 74.7267 19.3491 75.34H23.6291ZM43.1734 70.72C44.56 70.72 45.66 71.14 46.4734 71.98C47.3 72.82 47.7134 73.9867 47.7134 75.48V82H44.3134V75.94C44.3134 75.22 44.12 74.6667 43.7334 74.28C43.36 73.88 42.84 73.68 42.1734 73.68C41.5067 73.68 40.98 73.88 40.5934 74.28C40.22 74.6667 40.0334 75.22 40.0334 75.94V82H36.6334V75.94C36.6334 75.22 36.44 74.6667 36.0534 74.28C35.68 73.88 35.16 73.68 34.4934 73.68C33.8267 73.68 33.3 73.88 32.9134 74.28C32.54 74.6667 32.3534 75.22 32.3534 75.94V82H28.9334V70.84H32.3534V72.24C32.7 71.7733 33.1534 71.4067 33.7134 71.14C34.2734 70.86 34.9067 70.72 35.6134 70.72C36.4534 70.72 37.2 70.9 37.8534 71.26C38.52 71.62 39.04 72.1333 39.4134 72.8C39.8 72.1867 40.3267 71.6867 40.9934 71.3C41.66 70.9133 42.3867 70.72 43.1734 70.72ZM53.5252 72.42C53.8586 71.9 54.3186 71.48 54.9052 71.16C55.4919 70.84 56.1786 70.68 56.9652 70.68C57.8852 70.68 58.7186 70.9133 59.4652 71.38C60.2119 71.8467 60.7986 72.5133 61.2252 73.38C61.6652 74.2467 61.8852 75.2533 61.8852 76.4C61.8852 77.5467 61.6652 78.56 61.2252 79.44C60.7986 80.3067 60.2119 80.98 59.4652 81.46C58.7186 81.9267 57.8852 82.16 56.9652 82.16C56.1919 82.16 55.5052 82 54.9052 81.68C54.3186 81.36 53.8586 80.9467 53.5252 80.44V87.32H50.1052V70.84H53.5252V72.42ZM58.4052 76.4C58.4052 75.5467 58.1652 74.88 57.6852 74.4C57.2186 73.9067 56.6386 73.66 55.9452 73.66C55.2652 73.66 54.6852 73.9067 54.2052 74.4C53.7386 74.8933 53.5052 75.5667 53.5052 76.42C53.5052 77.2733 53.7386 77.9467 54.2052 78.44C54.6852 78.9333 55.2652 79.18 55.9452 79.18C56.6252 79.18 57.2052 78.9333 57.6852 78.44C58.1652 77.9333 58.4052 77.2533 58.4052 76.4ZM74.1995 76.24C74.1995 76.56 74.1795 76.8933 74.1395 77.24H66.3995C66.4528 77.9333 66.6728 78.4667 67.0595 78.84C67.4595 79.2 67.9461 79.38 68.5195 79.38C69.3728 79.38 69.9661 79.02 70.2995 78.3H73.9395C73.7528 79.0333 73.4128 79.6933 72.9195 80.28C72.4395 80.8667 71.8328 81.3267 71.0995 81.66C70.3661 81.9933 69.5461 82.16 68.6395 82.16C67.5461 82.16 66.5728 81.9267 65.7195 81.46C64.8661 80.9933 64.1995 80.3267 63.7195 79.46C63.2395 78.5933 62.9995 77.58 62.9995 76.42C62.9995 75.26 63.2328 74.2467 63.6995 73.38C64.1795 72.5133 64.8461 71.8467 65.6995 71.38C66.5528 70.9133 67.5328 70.68 68.6395 70.68C69.7195 70.68 70.6795 70.9067 71.5195 71.36C72.3595 71.8133 73.0128 72.46 73.4795 73.3C73.9595 74.14 74.1995 75.12 74.1995 76.24ZM70.6995 75.34C70.6995 74.7533 70.4995 74.2867 70.0995 73.94C69.6995 73.5933 69.1995 73.42 68.5995 73.42C68.0261 73.42 67.5395 73.5867 67.1395 73.92C66.7528 74.2533 66.5128 74.7267 66.4195 75.34H70.6995ZM79.4237 72.7C79.8237 72.0867 80.3237 71.6067 80.9237 71.26C81.5237 70.9 82.1903 70.72 82.9237 70.72V74.34H81.9837C81.1303 74.34 80.4903 74.5267 80.0637 74.9C79.637 75.26 79.4237 75.9 79.4237 76.82V82H76.0037V70.84H79.4237V72.7ZM86.2784 69.68C85.6784 69.68 85.185 69.5067 84.7984 69.16C84.425 68.8 84.2384 68.36 84.2384 67.84C84.2384 67.3067 84.425 66.8667 84.7984 66.52C85.185 66.16 85.6784 65.98 86.2784 65.98C86.865 65.98 87.345 66.16 87.7184 66.52C88.105 66.8667 88.2984 67.3067 88.2984 67.84C88.2984 68.36 88.105 68.8 87.7184 69.16C87.345 69.5067 86.865 69.68 86.2784 69.68ZM87.9784 70.84V82H84.5584V70.84H87.9784ZM101.477 70.84V82H98.0568V80.48C97.7101 80.9733 97.2368 81.3733 96.6368 81.68C96.0501 81.9733 95.3968 82.12 94.6768 82.12C93.8235 82.12 93.0701 81.9333 92.4168 81.56C91.7635 81.1733 91.2568 80.62 90.8968 79.9C90.5368 79.18 90.3568 78.3333 90.3568 77.36V70.84H93.7568V76.9C93.7568 77.6467 93.9501 78.2267 94.3368 78.64C94.7235 79.0533 95.2435 79.26 95.8968 79.26C96.5635 79.26 97.0901 79.0533 97.4768 78.64C97.8635 78.2267 98.0568 77.6467 98.0568 76.9V70.84H101.477ZM118.173 70.72C119.56 70.72 120.66 71.14 121.473 71.98C122.3 72.82 122.713 73.9867 122.713 75.48V82H119.313V75.94C119.313 75.22 119.12 74.6667 118.733 74.28C118.36 73.88 117.84 73.68 117.173 73.68C116.507 73.68 115.98 73.88 115.593 74.28C115.22 74.6667 115.033 75.22 115.033 75.94V82H111.633V75.94C111.633 75.22 111.44 74.6667 111.053 74.28C110.68 73.88 110.16 73.68 109.493 73.68C108.827 73.68 108.3 73.88 107.913 74.28C107.54 74.6667 107.353 75.22 107.353 75.94V82H103.933V70.84H107.353V72.24C107.7 71.7733 108.153 71.4067 108.713 71.14C109.273 70.86 109.907 70.72 110.613 70.72C111.453 70.72 112.2 70.9 112.853 71.26C113.52 71.62 114.04 72.1333 114.413 72.8C114.8 72.1867 115.327 71.6867 115.993 71.3C116.66 70.9133 117.387 70.72 118.173 70.72Z" fill="white"/>
<defs>
<clipPath id="clip0_393_2184">
<rect width="49.9972" height="50" fill="white" transform="translate(37.0013)"/>
</clipPath>
</defs>
</svg>
