<svg width="112" height="32" viewBox="0 0 112 32" fill="none" xmlns="http://www.w3.org/2000/svg">
<g clip-path="url(#clip0_390_1313)">
<path d="M16.3224 32C16.2689 31.9117 16.2591 31.8538 16.3527 31.761C17.5733 30.5529 18.983 29.6131 20.4694 28.7669C22.4568 27.6363 24.5067 26.6127 26.4175 25.3511C27.1718 24.8526 27.8441 24.2615 28.4825 23.6106C29.2895 22.7876 29.9181 21.8746 30.2925 20.7966C30.503 20.1903 30.6367 19.5625 30.6617 18.9054C30.8079 15.0384 30.6813 11.1713 30.7241 7.3043C30.7277 7.01273 30.6242 6.79161 30.4183 6.5999C28.6582 4.95929 26.8981 3.31689 25.1389 1.67539C24.9097 1.46139 24.6369 1.36242 24.3257 1.36242C22.4497 1.36421 20.5728 1.3437 18.6968 1.3758C16.9278 1.40611 15.1579 1.41681 13.3898 1.39006C11.5352 1.36153 9.68055 1.3865 7.82683 1.36153C7.40955 1.35618 7.07518 1.49349 6.76668 1.78417C5.11982 3.33918 3.46494 4.88707 1.79936 6.42336C1.44627 6.74881 1.27686 7.09476 1.27953 7.59051C1.29826 11.1089 1.29023 14.6264 1.29023 18.1448C1.29023 19.8006 1.7414 21.3146 2.71686 22.6619C3.60314 23.8852 4.74444 24.8312 6.01592 25.6212C7.89638 26.7893 9.86601 27.8022 11.7893 28.8962C13.182 29.688 14.499 30.5832 15.6313 31.7289C15.7098 31.8083 15.8453 31.877 15.6813 32.0009H13.89C13.5092 31.5783 13.026 31.2849 12.5641 30.9657C10.6177 29.6175 8.42869 28.6929 6.42607 27.4375C5.62449 26.9355 4.81131 26.454 4.0561 25.886C2.74895 24.9052 1.61479 23.763 0.866706 22.2847C0.423562 21.4082 0.0303498 20.4863 0.022325 19.5081C-0.0151238 15.1454 0.0071672 10.7844 0.00270901 6.42336C0.00270901 6.2593 0.0562073 6.15587 0.178362 6.04352C1.16184 5.14564 2.1364 4.23885 3.11185 3.33205C4.16488 2.35303 5.23484 1.39096 6.25488 0.379838C6.56338 0.074006 6.8603 0 7.25975 0C12.2601 0.00980802 17.2604 0.00624147 22.2616 0.00624147C23.221 0.00624147 24.1804 0.00624147 25.1407 0.00624147C25.2664 0.00624147 25.3805 0.00267492 25.4911 0.107888C26.7911 1.33746 28.092 2.56613 29.4036 3.78322C30.2613 4.57945 31.0941 5.40333 31.9983 6.14874V19.9058C31.8395 20.2188 31.7985 20.5692 31.7076 20.9C31.3072 22.3507 30.4976 23.5384 29.458 24.5914C27.9582 26.1098 26.1438 27.1807 24.2998 28.2105C22.6744 29.1191 20.9883 29.9216 19.4484 30.9782C18.9866 31.2947 18.5042 31.5881 18.1137 31.9991H16.3224V32Z" fill="white"/>
<path d="M23.3663 3.44344C23.6864 3.42115 23.9066 3.61107 24.1179 3.80723C25.1094 4.7274 26.0974 5.65113 27.0853 6.57576C27.4972 6.96095 27.9029 7.35416 28.3184 7.73578C28.478 7.8829 28.5529 8.04696 28.5529 8.26809C28.5458 11.6697 28.5717 15.0713 28.528 18.472C28.511 19.7658 28.0117 20.9231 27.1486 21.911C26.2044 22.9926 25.0425 23.8004 23.8255 24.5271C22.834 25.1183 21.813 25.6604 20.7957 26.2061C19.6918 26.7972 18.6219 27.4401 17.5715 28.1231C17.0553 28.4592 16.6175 28.881 16.1297 29.2457C15.9434 29.3848 15.8507 29.2341 15.7544 29.1476C15.2559 28.6964 14.7218 28.2916 14.1646 27.9189C12.861 27.0496 11.4638 26.3416 10.0916 25.5917C8.50266 24.7242 6.92179 23.8432 5.56828 22.6172C4.42787 21.5838 3.711 20.3266 3.51573 18.7805C3.4765 18.472 3.46847 18.1679 3.46758 17.8621C3.46312 14.7164 3.46669 11.5716 3.45777 8.42591C3.45688 8.10046 3.5612 7.84902 3.79749 7.63592C4.26381 7.21507 4.72836 6.79243 5.18755 6.36444C6.03817 5.56999 6.89682 4.78357 7.72694 3.96861C8.09964 3.60215 8.48929 3.4372 9.02516 3.43898C13.6207 3.4586 18.2162 3.45057 22.8117 3.44968C22.9713 3.44968 23.1318 3.44522 23.2914 3.44255C23.3172 3.44255 23.3431 3.44255 23.368 3.44255L23.3663 3.44344ZM13.4566 9.42187C13.4878 9.39423 13.4887 9.36659 13.4575 9.33895C13.4584 9.09018 13.4602 8.84052 13.4611 8.59176C13.4949 8.5552 13.4896 8.53112 13.4379 8.5231C13.3041 8.51151 13.1891 8.57303 13.0741 8.62385C11.9809 9.10891 11.0536 9.81776 10.2877 10.7326C9.60294 11.5502 9.14642 12.4802 8.88071 13.5198C8.56953 14.7387 8.63908 15.9389 9.01803 17.1105C9.63682 19.0266 10.9128 20.4069 12.6844 21.3315C12.9181 21.4536 13.1499 21.6605 13.4584 21.5811C13.4896 21.5526 13.4887 21.5241 13.4566 21.4964C13.4575 21.294 13.4432 21.0898 13.4646 20.8892C13.4905 20.6405 13.3933 20.5103 13.1677 20.4024C12.2894 19.9824 11.5583 19.3708 10.96 18.604C10.2654 17.7132 9.85438 16.6976 9.74025 15.5813C9.65733 14.7753 9.78127 13.9817 10.0505 13.2069C10.3466 12.3563 10.8236 11.6082 11.4326 10.9751C11.9355 10.4526 12.5445 10.0211 13.2185 9.70987C13.3416 9.6528 13.4896 9.61179 13.4566 9.42276V9.42187ZM16.5399 19.4626C16.5399 20.9133 16.539 22.3631 16.5381 23.8138C16.4195 23.9351 16.3803 24.0474 16.5738 24.133C16.8939 24.1312 17.2149 24.1294 17.535 24.1277C17.6045 24.1054 17.6027 24.0536 17.5876 23.9966C17.5893 22.7073 17.5938 21.418 17.5885 20.1278C17.5885 19.9316 17.6313 19.8309 17.8417 19.7658C18.4355 19.5821 18.9643 19.2647 19.4671 18.8991C19.7052 18.7261 19.7382 18.5843 19.4787 18.4096C19.3833 18.3445 19.2968 18.2589 19.2246 18.1679C19.0784 17.9869 18.9625 17.9602 18.7574 18.1251C18.209 18.5647 17.5644 18.8019 16.8787 18.9535C16.6014 19.015 16.5693 18.9294 16.5702 18.686C16.5773 16.3098 16.5747 13.9327 16.5747 11.5565C16.5747 11.1811 16.6299 11.1329 17.0018 11.231C17.6785 11.4093 18.3303 11.6465 18.8733 12.1111C18.958 12.1833 19.0311 12.2448 19.1426 12.1333C19.3075 11.9684 19.4885 11.8186 19.6642 11.6643C19.764 11.577 19.7756 11.5154 19.6597 11.4156C19.1292 10.9582 18.5398 10.5935 17.8702 10.4009C17.6116 10.326 17.5893 10.2101 17.5902 10.0023C17.5947 8.99032 17.5965 7.97742 17.5902 6.96541C17.5885 6.66938 17.7186 6.28687 17.5358 6.10052C17.3397 5.8999 16.95 6.05237 16.646 6.03275C16.621 6.0488 16.5961 6.06574 16.572 6.08179C16.5586 6.2833 16.5336 6.48481 16.5336 6.68722C16.5301 7.91322 16.5319 9.13922 16.5319 10.3652C16.5319 11.0839 16.5319 11.0714 15.8177 11.0883C15.5564 11.0946 15.4797 11.0331 15.4815 10.7611C15.4931 9.20431 15.4833 7.6484 15.4815 6.0916C15.4788 6.05326 15.4592 6.03365 15.42 6.03721L14.6024 6.03454C14.5123 6.0274 14.4231 6.02116 14.5132 6.15134C14.5052 6.44647 14.4526 6.73626 14.4561 7.03406C14.4686 8.03537 14.4615 9.03757 14.4606 10.0389C14.4606 10.186 14.4766 10.3135 14.2716 10.3822C13.6982 10.5721 13.1882 10.8654 12.6951 11.2346C11.9257 11.8115 11.3978 12.5292 11.034 13.3986C10.6034 14.4293 10.5793 15.4913 10.9395 16.522C11.495 18.1109 12.622 19.1782 14.2002 19.7568C14.4098 19.8335 14.4686 19.9352 14.4668 20.1474C14.457 21.2343 14.4615 22.3212 14.4615 23.4081C14.4615 24.1446 14.4615 24.1339 15.1935 24.1419C15.4351 24.1446 15.4967 24.0742 15.4949 23.837C15.4851 22.249 15.4904 20.6619 15.4904 19.0739C15.5172 19.0632 15.5439 19.0525 15.5707 19.0418C15.6063 19.0453 15.6429 19.0498 15.6786 19.0533C15.9157 19.0863 16.1529 19.089 16.3901 19.0525C16.5363 19.0542 16.531 19.1639 16.5408 19.2629C16.5122 19.3298 16.5131 19.3966 16.5408 19.4644L16.5399 19.4626ZM18.5639 8.84052C18.5639 9.3336 18.5639 9.33538 19.0097 9.51906C19.4752 9.71076 19.9085 9.95685 20.3213 10.244C20.653 10.4752 20.9675 10.4568 21.2647 10.1887C21.5696 9.91405 21.5678 9.87571 21.237 9.62784C20.587 9.14011 19.8996 8.72193 19.1283 8.44998C18.4489 8.21013 18.563 8.29127 18.5639 8.84052ZM18.5639 21.2494C18.5639 21.3466 18.5639 21.3894 18.5639 21.4322C18.5639 21.87 18.6005 21.8995 19.0044 21.7497C19.7034 21.4902 20.373 21.1674 20.9704 20.718C21.6115 20.2357 21.5447 20.3837 21.0088 19.8317C20.8287 19.6463 20.678 19.616 20.4676 19.7872C20.028 20.1447 19.5394 20.4336 19.0062 20.6182C18.6495 20.7412 18.4649 20.9169 18.5639 21.2503V21.2494Z" fill="white"/>
<path d="M23.3663 3.44358C23.3404 3.44358 23.3146 3.44358 23.2896 3.44358C23.3154 3.41594 23.3413 3.41594 23.3663 3.44358Z" fill="white"/>
<path d="M15.6777 19.0524C15.9148 18.9837 16.152 18.9855 16.3901 19.0515C16.1529 19.0881 15.9157 19.0854 15.6777 19.0524Z" fill="white"/>
<path d="M16.539 23.814C16.6103 23.9138 16.5702 24.0262 16.5747 24.1332C16.3812 24.0467 16.4204 23.9352 16.539 23.814Z" fill="white"/>
<path d="M15.5377 18.9338C15.5484 18.9695 15.5591 19.0052 15.5698 19.0408C15.543 19.0515 15.5163 19.0622 15.4895 19.0729C15.4441 19.0391 15.3995 19.0052 15.354 18.9704C15.4155 18.9579 15.4771 18.9454 15.5377 18.9338Z" fill="white"/>
<path d="M14.6015 6.03292C14.5899 6.08553 14.5703 6.13189 14.5123 6.14973C14.4222 6.01955 14.5114 6.02579 14.6015 6.03292Z" fill="white"/>
<path d="M16.5399 19.2612C16.5907 19.3281 16.5907 19.395 16.5399 19.4627C16.5122 19.3959 16.5114 19.329 16.5399 19.2612Z" fill="white"/>
<path d="M17.5359 24.1277C17.5537 24.084 17.5715 24.0403 17.5893 23.9966C17.6045 24.0536 17.6063 24.1045 17.5359 24.1277Z" fill="white"/>
<path d="M13.4611 8.59087C13.453 8.56769 13.4459 8.5454 13.4379 8.52222C13.4896 8.53024 13.4949 8.55342 13.4611 8.59087Z" fill="white"/>
<path d="M13.4566 9.42203C13.4566 9.39439 13.4566 9.36675 13.4566 9.33911C13.4878 9.36675 13.4869 9.39439 13.4566 9.42203Z" fill="white"/>
<path d="M16.6469 6.03198C16.6219 6.04803 16.597 6.06497 16.5729 6.08102C16.5978 6.06497 16.6228 6.04803 16.6469 6.03198Z" fill="white"/>
<path d="M15.4806 6.0898C15.4601 6.07196 15.4396 6.05324 15.4191 6.03541C15.4583 6.03273 15.4779 6.05146 15.4806 6.0898Z" fill="white"/>
<path d="M13.4593 21.5803C13.4593 21.5518 13.4584 21.5241 13.4575 21.4956C13.4896 21.5232 13.4905 21.5509 13.4593 21.5803Z" fill="white"/>
<path d="M15.5377 18.934C15.4762 18.9465 15.4146 18.959 15.354 18.9706C13.6349 18.655 12.4152 17.7383 11.8945 16.0282C11.6662 15.2783 11.7366 14.5222 11.9899 13.775C12.3563 12.6926 13.1891 12.0738 14.1146 11.521C14.4945 11.2945 14.9091 11.2811 15.3148 11.1964C15.42 11.1741 15.5377 11.1554 15.5413 11.3248C15.4699 11.4193 15.4967 11.529 15.4967 11.6333C15.4949 13.907 15.4949 16.1807 15.4967 18.4543C15.4967 18.5587 15.4708 18.6683 15.5413 18.7628C15.5413 18.8199 15.5395 18.877 15.5386 18.934H15.5377Z" fill="white"/>
<path d="M15.5404 18.7628C15.4699 18.6682 15.4967 18.5577 15.4958 18.4542C15.4949 16.1806 15.4949 13.9069 15.4958 11.6332C15.4958 11.5298 15.469 11.4192 15.5404 11.3247C15.5457 11.8561 15.5555 12.3884 15.5564 12.9198C15.5582 14.7397 15.5573 16.5604 15.5564 18.3802C15.5564 18.5077 15.5457 18.6352 15.5395 18.7619L15.5404 18.7628Z" fill="white"/>
</g>
<path d="M38.7034 15.8C38.7034 14.976 38.8874 14.24 39.2554 13.592C39.6314 12.936 40.1394 12.428 40.7794 12.068C41.4274 11.7 42.1514 11.516 42.9514 11.516C43.8874 11.516 44.7074 11.756 45.4114 12.236C46.1154 12.716 46.6074 13.38 46.8874 14.228H44.9554C44.7634 13.828 44.4914 13.528 44.1394 13.328C43.7954 13.128 43.3954 13.028 42.9394 13.028C42.4514 13.028 42.0154 13.144 41.6314 13.376C41.2554 13.6 40.9594 13.92 40.7434 14.336C40.5354 14.752 40.4314 15.24 40.4314 15.8C40.4314 16.352 40.5354 16.84 40.7434 17.264C40.9594 17.68 41.2554 18.004 41.6314 18.236C42.0154 18.46 42.4514 18.572 42.9394 18.572C43.3954 18.572 43.7954 18.472 44.1394 18.272C44.4914 18.064 44.7634 17.76 44.9554 17.36H46.8874C46.6074 18.216 46.1154 18.884 45.4114 19.364C44.7154 19.836 43.8954 20.072 42.9514 20.072C42.1514 20.072 41.4274 19.892 40.7794 19.532C40.1394 19.164 39.6314 18.656 39.2554 18.008C38.8874 17.36 38.7034 16.624 38.7034 15.8ZM54.5023 16.532C54.5023 16.772 54.4863 16.988 54.4543 17.18H49.5943C49.6343 17.66 49.8023 18.036 50.0983 18.308C50.3943 18.58 50.7583 18.716 51.1903 18.716C51.8143 18.716 52.2583 18.448 52.5223 17.912H54.3343C54.1423 18.552 53.7743 19.08 53.2303 19.496C52.6863 19.904 52.0183 20.108 51.2263 20.108C50.5863 20.108 50.0103 19.968 49.4983 19.688C48.9943 19.4 48.5983 18.996 48.3103 18.476C48.0303 17.956 47.8903 17.356 47.8903 16.676C47.8903 15.988 48.0303 15.384 48.3103 14.864C48.5903 14.344 48.9823 13.944 49.4863 13.664C49.9903 13.384 50.5703 13.244 51.2263 13.244C51.8583 13.244 52.4223 13.38 52.9183 13.652C53.4223 13.924 53.8103 14.312 54.0823 14.816C54.3623 15.312 54.5023 15.884 54.5023 16.532ZM52.7623 16.052C52.7543 15.62 52.5983 15.276 52.2943 15.02C51.9903 14.756 51.6183 14.624 51.1783 14.624C50.7623 14.624 50.4103 14.752 50.1223 15.008C49.8423 15.256 49.6703 15.604 49.6063 16.052H52.7623ZM63.9846 13.256C64.8006 13.256 65.4566 13.508 65.9526 14.012C66.4566 14.508 66.7086 15.204 66.7086 16.1V20H65.0286V16.328C65.0286 15.808 64.8966 15.412 64.6326 15.14C64.3686 14.86 64.0086 14.72 63.5526 14.72C63.0966 14.72 62.7326 14.86 62.4606 15.14C62.1966 15.412 62.0646 15.808 62.0646 16.328V20H60.3846V16.328C60.3846 15.808 60.2526 15.412 59.9886 15.14C59.7246 14.86 59.3646 14.72 58.9086 14.72C58.4446 14.72 58.0766 14.86 57.8046 15.14C57.5406 15.412 57.4086 15.808 57.4086 16.328V20H55.7286V13.352H57.4086V14.156C57.6246 13.876 57.9006 13.656 58.2366 13.496C58.5806 13.336 58.9566 13.256 59.3646 13.256C59.8846 13.256 60.3486 13.368 60.7566 13.592C61.1646 13.808 61.4806 14.12 61.7046 14.528C61.9206 14.144 62.2326 13.836 62.6406 13.604C63.0566 13.372 63.5046 13.256 63.9846 13.256ZM69.9828 14.312C70.1988 14.008 70.4948 13.756 70.8708 13.556C71.2548 13.348 71.6908 13.244 72.1788 13.244C72.7468 13.244 73.2588 13.384 73.7148 13.664C74.1788 13.944 74.5428 14.344 74.8068 14.864C75.0788 15.376 75.2148 15.972 75.2148 16.652C75.2148 17.332 75.0788 17.936 74.8068 18.464C74.5428 18.984 74.1788 19.388 73.7148 19.676C73.2588 19.964 72.7468 20.108 72.1788 20.108C71.6908 20.108 71.2588 20.008 70.8828 19.808C70.5148 19.608 70.2148 19.356 69.9828 19.052V23.168H68.3028V13.352H69.9828V14.312ZM73.4988 16.652C73.4988 16.252 73.4148 15.908 73.2468 15.62C73.0868 15.324 72.8708 15.1 72.5988 14.948C72.3348 14.796 72.0468 14.72 71.7348 14.72C71.4308 14.72 71.1428 14.8 70.8708 14.96C70.6068 15.112 70.3908 15.336 70.2228 15.632C70.0628 15.928 69.9828 16.276 69.9828 16.676C69.9828 17.076 70.0628 17.424 70.2228 17.72C70.3908 18.016 70.6068 18.244 70.8708 18.404C71.1428 18.556 71.4308 18.632 71.7348 18.632C72.0468 18.632 72.3348 18.552 72.5988 18.392C72.8708 18.232 73.0868 18.004 73.2468 17.708C73.4148 17.412 73.4988 17.06 73.4988 16.652ZM82.6156 16.532C82.6156 16.772 82.5996 16.988 82.5676 17.18H77.7076C77.7476 17.66 77.9156 18.036 78.2116 18.308C78.5076 18.58 78.8716 18.716 79.3036 18.716C79.9276 18.716 80.3716 18.448 80.6356 17.912H82.4476C82.2556 18.552 81.8876 19.08 81.3436 19.496C80.7996 19.904 80.1316 20.108 79.3396 20.108C78.6996 20.108 78.1236 19.968 77.6116 19.688C77.1076 19.4 76.7116 18.996 76.4236 18.476C76.1436 17.956 76.0036 17.356 76.0036 16.676C76.0036 15.988 76.1436 15.384 76.4236 14.864C76.7036 14.344 77.0956 13.944 77.5996 13.664C78.1036 13.384 78.6836 13.244 79.3396 13.244C79.9716 13.244 80.5356 13.38 81.0316 13.652C81.5356 13.924 81.9236 14.312 82.1956 14.816C82.4756 15.312 82.6156 15.884 82.6156 16.532ZM80.8756 16.052C80.8676 15.62 80.7116 15.276 80.4076 15.02C80.1036 14.756 79.7316 14.624 79.2916 14.624C78.8756 14.624 78.5236 14.752 78.2356 15.008C77.9556 15.256 77.7836 15.604 77.7196 16.052H80.8756ZM85.5218 14.384C85.7378 14.032 86.0178 13.756 86.3618 13.556C86.7138 13.356 87.1138 13.256 87.5618 13.256V15.02H87.1178C86.5898 15.02 86.1898 15.144 85.9178 15.392C85.6538 15.64 85.5218 16.072 85.5218 16.688V20H83.8418V13.352H85.5218V14.384ZM89.5454 12.56C89.2494 12.56 89.0014 12.468 88.8014 12.284C88.6094 12.092 88.5134 11.856 88.5134 11.576C88.5134 11.296 88.6094 11.064 88.8014 10.88C89.0014 10.688 89.2494 10.592 89.5454 10.592C89.8414 10.592 90.0854 10.688 90.2774 10.88C90.4774 11.064 90.5774 11.296 90.5774 11.576C90.5774 11.856 90.4774 12.092 90.2774 12.284C90.0854 12.468 89.8414 12.56 89.5454 12.56ZM90.3734 13.352V20H88.6934V13.352H90.3734ZM98.3092 13.352V20H96.6172V19.16C96.4012 19.448 96.1172 19.676 95.7652 19.844C95.4212 20.004 95.0452 20.084 94.6372 20.084C94.1172 20.084 93.6572 19.976 93.2572 19.76C92.8572 19.536 92.5412 19.212 92.3092 18.788C92.0852 18.356 91.9732 17.844 91.9732 17.252V13.352H93.6532V17.012C93.6532 17.54 93.7852 17.948 94.0492 18.236C94.3132 18.516 94.6732 18.656 95.1292 18.656C95.5932 18.656 95.9572 18.516 96.2212 18.236C96.4852 17.948 96.6172 17.54 96.6172 17.012V13.352H98.3092ZM108.223 13.256C109.039 13.256 109.695 13.508 110.191 14.012C110.695 14.508 110.947 15.204 110.947 16.1V20H109.267V16.328C109.267 15.808 109.135 15.412 108.871 15.14C108.607 14.86 108.247 14.72 107.791 14.72C107.335 14.72 106.971 14.86 106.699 15.14C106.435 15.412 106.303 15.808 106.303 16.328V20H104.623V16.328C104.623 15.808 104.491 15.412 104.227 15.14C103.963 14.86 103.603 14.72 103.147 14.72C102.683 14.72 102.315 14.86 102.043 15.14C101.779 15.412 101.647 15.808 101.647 16.328V20H99.9668V13.352H101.647V14.156C101.863 13.876 102.139 13.656 102.475 13.496C102.819 13.336 103.195 13.256 103.603 13.256C104.123 13.256 104.587 13.368 104.995 13.592C105.403 13.808 105.719 14.12 105.943 14.528C106.159 14.144 106.471 13.836 106.879 13.604C107.295 13.372 107.743 13.256 108.223 13.256Z" fill="white"/>
<defs>
<clipPath id="clip0_390_1313">
<rect width="31.9982" height="32" fill="white"/>
</clipPath>
</defs>
</svg>
